<svg height="512pt" viewBox="0 0 512 511" width="512pt" xmlns="http://www.w3.org/2000/svg"><path d="m476.863281.5h-441.726562c-19.375 0-35.136719 15.761719-35.136719 35.136719v321.253906c0 19.375 15.761719 35.136719 35.136719 35.136719h55.214843v105.414062c0 13.4375 16.300782 20.054688 25.707032 10.648438l116.0625-116.0625h244.742187c19.375 0 35.136719-15.761719 35.136719-35.136719v-321.253906c0-19.375-15.761719-35.136719-35.136719-35.136719zm5.019531 356.390625c0 2.769531-2.253906 5.019531-5.019531 5.019531h-250.980469c-3.996093 0-7.824218 1.585938-10.648437 4.410156l-94.765625 94.765626v-84.117188c0-8.316406-6.742188-15.058594-15.058594-15.058594h-70.273437c-2.769531 0-5.019531-2.25-5.019531-5.019531v-321.253906c0-2.769531 2.25-5.019531 5.019531-5.019531h441.726562c2.765625 0 5.019531 2.25 5.019531 5.019531zm0 0"/><path d="m384.734375 152.882812-79.621094-11.570312-35.609375-72.152344c-5.515625-11.167968-21.492187-11.171875-27.007812 0l-35.609375 72.152344-79.625 11.570312c-12.324219 1.792969-17.269531 16.984376-8.34375 25.6875l57.613281 56.160157-13.597656 79.300781c-2.105469 12.277344 10.8125 21.679688 21.847656 15.875l71.21875-37.441406c76.878906 40.417968 73.039062 39.171875 78.222656 39.171875 9.285156 0 16.429688-8.367188 14.84375-17.605469l-13.601562-79.300781 57.617187-56.160157c8.917969-8.695312 3.988281-23.894531-8.347656-25.6875zm-75.960937 65.808594c-3.546876 3.457032-5.167969 8.441406-4.328126 13.328125l9.78125 57.03125-51.21875-26.925781c-4.386718-2.308594-9.625-2.308594-14.015624 0l-51.21875 26.925781 9.78125-57.03125c.839843-4.886719-.78125-9.871093-4.328126-13.328125l-41.4375-40.390625 57.265626-8.320312c4.902343-.714844 9.140624-3.792969 11.335937-8.238281l25.609375-51.890626 25.609375 51.890626c2.195313 4.445312 6.433594 7.523437 11.335937 8.238281l57.265626 8.320312zm0 0"/></svg>